HIERARCHY
ROOT Hips
{
	OFFSET 0.000000 0.000000 0.000000 
	CHANNELS 6 Xposition Yposition Zposition Zrotation Yrotation Xrotation
	JOINT LeftUpLeg
	{
		OFFSET 1.363060 -1.794630 0.839290 
		CHANNELS 3 Zrotation Yrotation Xrotation
		JOINT LeftLeg
		{
			OFFSET 2.448110 -6.726130 0.000000 
			CHANNELS 3 Zrotation Yrotation Xrotation
			JOINT LeftFoot
			{
				OFFSET 2.562200 -7.039590 0.000000 
				CHANNELS 3 Zrotation Yrotation Xrotation
				JOINT LeftToeBase
				{
					OFFSET 0.157640 -0.433110 2.322550 
					CHANNELS 3 Zrotation Yrotation Xrotation
					End Site
					{
						OFFSET 0.000000 0.000000 0.000000 
					}
				}
			}
		}
	}
	JOINT RightUpLeg
	{
		OFFSET -1.305520 -1.794630 0.839290 
		CHANNELS 3 Zrotation Yrotation Xrotation
		JOINT RightLeg
		{
			OFFSET -2.542530 -6.985550 0.000000 
			CHANNELS 3 Zrotation Yrotation Xrotation
			JOINT RightFoot
			{
				OFFSET -2.568260 -7.056230 0.000000 
				CHANNELS 3 Zrotation Yrotation Xrotation
				JOINT RightToeBase
				{
					OFFSET -0.164730 -0.452590 2.363150 
					CHANNELS 3 Zrotation Yrotation Xrotation
					End Site
					{
						OFFSET 0.000000 0.000000 0.000000 
					}
				}
			}
		}
	}
	JOINT Spine
	{
		OFFSET 0.028270 2.035590 -0.193380 
		CHANNELS 3 Zrotation Yrotation Xrotation
		JOINT Spine1
		{
			OFFSET 0.056720 2.048850 -0.042750 
			CHANNELS 3 Zrotation Yrotation Xrotation
			JOINT Neck1
			{
				OFFSET -0.054170 1.746240 0.172020 
				CHANNELS 3 Zrotation Yrotation Xrotation
				JOINT Head
				{
					OFFSET 0.104070 1.761360 -0.123970 
					CHANNELS 3 Zrotation Yrotation Xrotation
					End Site
					{
						OFFSET 0.000000 0.000000 0.000000 
					}
				}
			}
			JOINT LeftArm
			{
				OFFSET 3.362410 1.200890 -0.311210 
				CHANNELS 3 Zrotation Yrotation Xrotation
				JOINT LeftForeArm
				{
					OFFSET 4.983000 -0.000000 -0.000000 
					CHANNELS 3 Zrotation Yrotation Xrotation
					JOINT LeftHand
					{
						OFFSET 3.483560 -0.000000 -0.000000 
						CHANNELS 3 Zrotation Yrotation Xrotation
						JOINT LeftHandIndex1
						{
							OFFSET 0.715260 -0.000000 -0.000000 
							CHANNELS 3 Zrotation Yrotation Xrotation
							End Site
							{
								OFFSET 0.000000 0.000000 0.000000 
							}
						}
					}
				}
			}
			JOINT RightArm
			{
				OFFSET -3.136600 1.374050 -0.404650 
				CHANNELS 3 Zrotation Yrotation Xrotation
				JOINT RightForeArm
				{
					OFFSET -5.241900 -0.000000 -0.000000 
					CHANNELS 3 Zrotation Yrotation Xrotation
					JOINT RightHand
					{
						OFFSET -3.444170 -0.000000 -0.000000 
						CHANNELS 3 Zrotation Yrotation Xrotation
						JOINT RightHandIndex1
						{
							OFFSET -0.622530 -0.000000 -0.000000 
							CHANNELS 3 Zrotation Yrotation Xrotation
							End Site
							{
								OFFSET 0.000000 0.000000 0.000000 
							}
						}
					}
				}
			}
		}
	}
}
MOTION
Frames: 7
Frame Time: 0.041667
0.641160 15.275684 -13.266790 -3.578531 -1.318760 26.630337 -12.073618 -7.655988 -55.633874 12.291336 19.967402 67.893109 0.313204 12.202979 -29.141678 1.031400 -6.459700 -18.124300 15.992966 18.270663 -53.527575 -12.200018 -20.374844 67.733118 -1.769011 -8.799940 -33.317910 -0.130900 2.331700 -6.423300 1.784615 2.039099 -3.242460 3.574382 0.791829 -7.079588 2.606676 0.343023 10.918556 -0.172800 0.233800 7.474100 -92.597296 -12.187400 22.588416 8.971479 -18.363878 -1.526198 -0.059721 -0.506778 -15.004614 -7.125000 0.000000 0.000000 87.732582 10.539409 9.575523 -12.621609 24.036500 -3.173412 0.838910 0.669007 29.266062 7.125000 0.000000 0.000000 
0.639944 15.404869 -13.089275 -3.561271 -1.046937 25.798798 -12.448897 -7.140047 -53.236969 11.700130 19.669497 66.130468 0.194694 12.199471 -28.546199 1.117700 -6.716100 -18.877100 16.845212 17.521837 -50.759274 -11.534394 -20.005349 65.744725 -1.638065 -9.126470 -32.997613 -0.172900 2.678700 -7.385300 1.822133 1.913782 -3.263908 3.707119 0.724991 -6.949224 2.724644 0.273207 11.632980 -0.129100 0.228800 7.673400 -92.550801 -13.467970 24.370462 9.713462 -19.549967 -1.790451 -0.035323 -0.501539 -15.852696 -7.125000 0.000000 0.000000 87.535246 11.861326 11.286422 -13.360985 25.048638 -3.504579 0.820318 0.669229 28.345108 7.125000 0.000000 0.000000 
0.638323 15.541449 -12.902743 -3.501333 -0.773248 24.915548 -12.851950 -6.580312 -50.746639 11.084979 19.335484 64.271701 0.055220 12.173468 -27.789647 1.214100 -6.989700 -19.684800 17.648327 16.671639 -47.875301 -10.840421 -19.582735 63.632494 -1.478909 -9.464419 -32.541758 -0.222700 3.037600 -8.383400 1.852627 1.782780 -3.279265 3.832814 0.654992 -6.770190 2.839646 0.172537 12.387865 -0.087000 0.209900 7.871400 -92.522261 -14.712619 25.987773 10.389334 -20.607282 -2.044728 -0.012067 -0.496429 -16.420008 -7.125000 0.000000 0.000000 87.381431 13.033333 12.906412 -14.095427 26.040044 -3.844593 0.803028 0.670151 27.432798 7.125000 0.000000 0.000000 
0.636196 15.684616 -12.706889 -3.400170 -0.502008 23.996867 -13.272953 -5.964586 -48.198558 10.457618 18.967983 62.344472 -0.094127 12.076092 -26.854547 1.318300 -7.272200 -20.524200 18.383730 15.720718 -44.916973 -10.131791 -19.109984 61.426798 -1.292178 -9.788930 -31.920197 -0.281400 3.411900 -9.427600 1.873620 1.649400 -3.286127 3.938948 0.582965 -6.519330 2.955855 0.035079 13.182551 -0.044000 0.174600 8.066300 -92.519939 -15.946783 27.467139 10.985362 -21.524212 -2.278877 0.009980 -0.491964 -16.980306 -7.125000 0.000000 0.000000 87.280688 14.096677 14.367304 -14.760441 26.926842 -4.162396 0.789150 0.670836 26.590280 7.125000 0.000000 0.000000 
0.633865 15.834166 -12.501612 -3.262160 -0.238307 23.064743 -13.700002 -5.281407 -45.636646 9.828503 18.571303 60.374545 -0.247867 11.883103 -25.713336 1.432500 -7.567600 -21.408100 19.032369 14.676375 -41.940432 -9.425799 -18.595020 59.171225 -1.083473 -10.052006 -31.098762 -0.348100 3.790700 -10.488500 1.883416 1.514940 -3.282750 4.014580 0.509261 -6.172531 3.071593 -0.134759 14.001925 -0.000500 0.124600 8.247700 -92.549215 -17.186420 28.829514 11.481032 -22.279156 -2.480261 0.029388 -0.488206 -17.704156 -7.125000 0.000000 0.000000 87.235375 15.088387 15.659038 -15.302126 27.646247 -4.428338 0.779819 0.671013 25.885700 7.125000 0.000000 0.000000 
0.631231 15.989289 -12.287318 -3.099114 0.015846 22.143333 -14.100142 -4.546249 -43.158222 9.263446 18.183864 58.565948 -0.372881 11.545540 -24.472697 1.552200 -7.863400 -22.300000 19.579244 13.579148 -39.070521 -8.798542 -18.088913 57.105173 -0.883075 -10.196806 -30.160304 -0.423100 4.174800 -11.568900 1.881832 1.378046 -3.267733 4.054070 0.432921 -5.712955 3.180969 -0.331655 14.833466 0.039600 0.062300 8.407500 -92.604606 -18.429871 30.101450 11.873676 -22.878523 -2.644031 0.045667 -0.485390 -18.668311 -7.125000 0.000000 0.000000 87.251414 16.050236 16.782291 -15.670993 28.144432 -4.614706 0.774880 0.669166 25.409567 7.125000 0.000000 0.000000 
0.628799 16.150592 -12.063905 -2.923111 0.252316 21.237962 -14.464436 -3.741038 -40.731959 8.711203 17.780704 56.755562 -0.483008 11.041326 -22.980275 1.677100 -8.158400 -23.196100 20.033437 12.419069 -36.295020 -8.209410 -17.574541 55.101014 -0.664373 -10.219692 -28.924908 -0.511900 4.586000 -12.731600 1.868605 1.239396 -3.238519 4.049343 0.354051 -5.132787 3.278405 -0.540827 15.662051 0.074600 -0.005900 8.537200 -92.676933 -19.669777 31.302758 12.164180 -23.331306 -2.767765 0.058670 -0.483833 -19.823645 -7.125000 0.000000 0.000000 87.333575 17.007063 17.758314 -15.848649 28.406764 -4.709069 0.772609 0.665494 25.220312 7.125000 0.000000 0.000000 
